# xmcd
#
# Track frame offsets:
#	150
#	14600
#	30457
#	46875
#	62007
#	72899
#	87349
#	103254
#	119631
#	134763
#
# Disc length: 1940 seconds
#
# Revision: 1
# Processed by: cddbd v1.5.2PL0 Copyright (c) Steve Scherf et al.
# Submitted via: audiograbber 1.83.01
#
DISCID=9007920a
DTITLE=george strait - pro sound series
DYEAR=2001
DGENRE=karaoke
TTITLE0=ocean front property
TTITLE1=so much like my dad
TTITLE2=i cross my heart
TTITLE3=all my exes live in texas
TTITLE4=heartland
TTITLE5=ocean front property
TTITLE6=so much like my dad
TTITLE7=i cross my heart
TTITLE8=all my exes live in texas
TTITLE9=heartland
EXTD=
EXTT0=
EXTT1=
EXTT2=
EXTT3=
EXTT4=
EXTT5=
EXTT6=
EXTT7=
EXTT8=
EXTT9=
PLAYORDER=
